# xmcd
#
# Track frame offsets:
#	150
#	21310
#	41757
#	61262
#	79337
#	100200
#	119372
#	138940
#	159495
#	179145
#	197485
#	219347
#	238995
#	260175
#	279237
#
# Disc length: 3963 seconds
#
# Revision: 0
# Processed by: cddbd v1.5.2PL0 Copyright (c) Steve Scherf et al.
# Submitted via: EasyCDDAExtractor 15.3.0.1
#
DISCID=df0f790f
DTITLE=Jailene - 30 Exitos Insuperables - CD 1
DYEAR=2003
DGENRE=Latin
TTITLE0=Como Toda Mujer
TTITLE1=Encontre El Amor
TTITLE2=Mio
TTITLE3=Un Hombre Como Tu
TTITLE4=Esos Hombres
TTITLE5=Pero No
TTITLE6=Amame Menos... Comprendeme Mas
TTITLE7=Regresa A Mi
TTITLE8=Barco De Papel
TTITLE9=Reina Y Cenicienta
TTITLE10=Compartir
TTITLE11=No Sirvo Para Estar Sin Ti
TTITLE12=Ciega
TTITLE13=Gaviota Herida
TTITLE14=Hoy Llore Por Ti
EXTD=
EXTT0=
EXTT1=
EXTT2=
EXTT3=
EXTT4=
EXTT5=
EXTT6=
EXTT7=
EXTT8=
EXTT9=
EXTT10=
EXTT11=
EXTT12=
EXTT13=
EXTT14=
PLAYORDER=
